<svg id="Layer_1" data-name="Layer 1" xmlns="http://www.w3.org/2000/svg" viewBox="0 0 2559.75 2524.22"><defs><style>.cls-1{fill:#96c93d;}</style></defs><title>Untitled-2 [Recovered]</title><path class="cls-1" d="M2660.38,2418.1c15.52,73.49,24.15,159.83,24.15,261.34H150.13c0-796.87,525.61-659.37,756.86-703.12,171.37-32.42,239.77-121.48,230.64-245.55-5.25-71.34-35.35-138.67-84.26-190.87-539.12-575.35-248.42-1384.68,364-1384.68s897.42,809.33,358.3,1384.68c-48.91,52.2-79,119.53-84.26,190.87-3.4,46.14,3.94,87.43,23.29,122.77a563,563,0,0,0-29,179c0,311.29,252.35,563.64,563.64,563.64C2411.41,2596.15,2557.55,2527.69,2660.38,2418.1Zm49.5-385.58c0,254.39-206.22,460.61-460.61,460.61s-460.61-206.22-460.61-460.61,206.22-460.61,460.61-460.61S2709.88,1778.13,2709.88,2032.52Zm-151.52-84.85H2334.12V1723.42h-169.7v224.24H1940.18v169.7h224.24v224.24h169.7V2117.36h224.24Z" transform="translate(-150.13 -155.21)"/></svg>