<?xml version="1.0" encoding="utf-8"?>
<!-- Generator: Adobe Illustrator 21.0.2, SVG Export Plug-In . SVG Version: 6.00 Build 0)  -->
<svg version="1.1" id="Layer_1" xmlns="http://www.w3.org/2000/svg" xmlns:xlink="http://www.w3.org/1999/xlink" x="0px" y="0px"
	 viewBox="0 0 24 24" style="enable-background:new 0 0 24 24;" xml:space="preserve">
<style type="text/css">
	.Drop_x0020_Shadow{fill:none;}
	.Outer_x0020_Glow_x0020_5_x0020_pt{fill:none;}
	.Jive_GS{fill:#A6D0E4;}
	.st0{fill:#444444;}
</style>
<g>
	<polygon class="st0" points="-18.918,26.68 -18.918,30.68 -28.918,30.68 -28.918,20.68 -24.918,20.68 -24.918,18.68 -30.918,18.68 
		-30.918,32.68 -16.918,32.68 -16.918,26.68 	"/>
	<polygon class="st0" points="-22.196,23.958 -20.871,29.013 -17.404,19.166 -27.251,22.633 	"/>
	<polygon class="st0" points="-22.918,8.68 -22.918,19.615 -20.918,18.911 -20.918,10.68 -8.918,10.68 -8.918,22.68 -17.149,22.68 
		-17.853,24.68 -6.918,24.68 -6.918,8.68 	"/>
</g>
<polygon class="st0" points="7,0 3.005,0 0.005,0 0,0 0,3 0,3 0,7 3,7 3,3 7,3 "/>
<polygon class="st0" points="24,7 24,3.005 24,0.005 24,0 21,0 21,0 17,0 17,3 21,3 21,7 "/>
<polygon class="st0" points="17,24 20.995,24 23.995,24 24,24 24,21 24,21 24,17 21,17 21,21 17,21 "/>
<polygon class="st0" points="0,17 0,20.995 0,23.995 0,24 3,24 3,24 7,24 7,21 3,21 3,17 "/>
<g>
	<path class="st0" d="M18,6v12H6V6H18 M19,5H5v14h14V5L19,5z"/>
	<g>
		<rect x="8" y="8" class="st0" width="8" height="8"/>
	</g>
</g>
</svg>
