<?xml version="1.0" encoding="utf-8"?>
<!-- Generator: Adobe Illustrator 21.0.2, SVG Export Plug-In . SVG Version: 6.00 Build 0)  -->
<svg version="1.1" xmlns="http://www.w3.org/2000/svg" xmlns:xlink="http://www.w3.org/1999/xlink" x="0px" y="0px"
	 viewBox="0 0 2000 2000" style="enable-background:new 0 0 2000 2000;" xml:space="preserve">
<style type="text/css">
	.Drop_x0020_Shadow{fill:none;}
	.Outer_x0020_Glow_x0020_5_x0020_pt{fill:none;}
	.Jive_GS{fill:#A6D0E4;}
	.st0{fill:#333333;}
	.st1{display:none;}
	.st2{display:inline;}
	.st3{fill:#161616;}
	.st4{filter:url(#Adobe_OpacityMaskFilter);}
	.st5{opacity:0.3;mask:url(#SVGID_1_);}
	.st6{fill:#FFFFFF;}
	.st7{fill:#CCCCCC;}
	.st8{filter:url(#Adobe_OpacityMaskFilter_1_);}
	.st9{opacity:0.45;mask:url(#SVGID_2_);}
	.st10{fill:#888888;}
	.st11{filter:url(#Adobe_OpacityMaskFilter_2_);}
	.st12{opacity:0.45;mask:url(#SVGID_3_);}
	.st13{fill:#CECB65;}
	.st14{filter:url(#Adobe_OpacityMaskFilter_3_);}
	.st15{opacity:0.45;mask:url(#SVGID_4_);}
	.st16{fill:#33FF33;}
	.st17{filter:url(#Adobe_OpacityMaskFilter_4_);}
	.st18{opacity:0.45;mask:url(#SVGID_5_);}
</style>
<g id="Layer_4">
	<rect x="-10142.173" y="-10142.173" class="st0" width="22284.346" height="22284.346"/>
</g>
<g id="toTopArrow" class="st1">
	<g class="st2">
		<polygon points="1000.5,385.526 10,983.255 10,1296.221 1000.5,768.943 1991,1296.221 1991,983.255 		"/>
		<polygon points="1000.5,898.147 10,1433.507 10,1614.458 1000.5,1104.189 1991,1614.458 1991,1433.507 		"/>
	</g>
</g>
<g id="firstUnreadPost" class="st1">
	<path class="st2" d="M1985.943,884.491L1067,353.939v279.607C205.641,641.678,13.772,1214.774,13.772,1646.061
		c0,0,208.494-515.551,1053.228-523.029v292.011L1985.943,884.491z"/>
</g>
<g id="forumNoNew" class="st1">
	<g class="st2">
		
			<image style="overflow:visible;" width="1953" height="1953" xlink:href="6EAC06BD.png"  transform="matrix(1 0 0 1 23.0125 23.0125)">
		</image>
		<g>
			<g>
				<path class="st3" d="M1874.317,1916H124.683C101.662,1916,83,1897.338,83,1874.317V124.683C83,101.662,101.662,83,124.683,83
					h1749.635c23.021,0,41.683,18.662,41.683,41.683v1749.635C1916,1897.338,1897.338,1916,1874.317,1916z"/>
			</g>
			<defs>
				<filter id="Adobe_OpacityMaskFilter" filterUnits="userSpaceOnUse" x="83" y="83" width="1833" height="1833">
					
						<feColorMatrix  type="matrix" values="-1 0 0 0 1  0 -1 0 0 1  0 0 -1 0 1  0 0 0 1 0" color-interpolation-filters="sRGB" result="source"/>
				</filter>
			</defs>
			<mask maskUnits="userSpaceOnUse" x="83" y="83" width="1833" height="1833" id="SVGID_1_">
				<g class="st4">
					<image style="overflow:visible;" width="1837" height="1837" xlink:href="6EAC06BF.jpg"  transform="matrix(1 0 0 1 81 81)">
					</image>
				</g>
			</mask>
			<g class="st5">
				<path class="st6" d="M1874.317,1916H124.683C101.662,1916,83,1897.338,83,1874.317V124.683C83,101.662,101.662,83,124.683,83
					h1749.635c23.021,0,41.683,18.662,41.683,41.683v1749.635C1916,1897.338,1897.338,1916,1874.317,1916z"/>
			</g>
		</g>
	</g>
</g>
<g id="forumNew" class="st1">
	<g class="st2">
		
			<image style="overflow:visible;" width="1953" height="1953" xlink:href="6EAC06BA.png"  transform="matrix(1 0 0 1 23.0125 23.0125)">
		</image>
		<g>
			<g>
				<path class="st7" d="M1872.318,1916H126.682C102.557,1916,83,1896.443,83,1872.318V126.682C83,102.557,102.557,83,126.682,83
					h1745.635c24.125,0,43.682,19.557,43.682,43.682v1745.635C1916,1896.443,1896.443,1916,1872.318,1916z"/>
			</g>
			<defs>
				<filter id="Adobe_OpacityMaskFilter_1_" filterUnits="userSpaceOnUse" x="83" y="83" width="1833" height="1833">
					
						<feColorMatrix  type="matrix" values="-1 0 0 0 1  0 -1 0 0 1  0 0 -1 0 1  0 0 0 1 0" color-interpolation-filters="sRGB" result="source"/>
				</filter>
			</defs>
			<mask maskUnits="userSpaceOnUse" x="83" y="83" width="1833" height="1833" id="SVGID_2_">
				<g class="st8">
					<image style="overflow:visible;" width="1837" height="1837" xlink:href="6EAC06BB.jpg"  transform="matrix(1 0 0 1 81 81)">
					</image>
				</g>
			</mask>
			<g class="st9">
				<path d="M1872.318,1916H126.682C102.557,1916,83,1896.443,83,1872.318V126.682C83,102.557,102.557,83,126.682,83h1745.635
					c24.125,0,43.682,19.557,43.682,43.682v1745.635C1916,1896.443,1896.443,1916,1872.318,1916z"/>
			</g>
		</g>
	</g>
</g>
<g id="offlineDot" class="st1">
	<g class="st2">
		
			<image style="overflow:visible;opacity:0.7;" width="1999" height="1999" xlink:href="6EAC06C5.png"  transform="matrix(1 0 0 1 0.1281 0.1281)">
		</image>
		<g>
			<g>
				<circle class="st10" cx="999.5" cy="999.5" r="934.5"/>
			</g>
			<defs>
				<filter id="Adobe_OpacityMaskFilter_2_" filterUnits="userSpaceOnUse" x="65" y="65" width="1869" height="1869">
					
						<feColorMatrix  type="matrix" values="-1 0 0 0 1  0 -1 0 0 1  0 0 -1 0 1  0 0 0 1 0" color-interpolation-filters="sRGB" result="source"/>
				</filter>
			</defs>
			<mask maskUnits="userSpaceOnUse" x="65" y="65" width="1869" height="1869" id="SVGID_3_">
				<g class="st11">
					<image style="overflow:visible;" width="1873" height="1873" xlink:href="6EAC06C7.jpg"  transform="matrix(1 0 0 1 63 63)">
					</image>
				</g>
			</mask>
			<g class="st12">
				<circle cx="999.5" cy="999.5" r="934.5"/>
			</g>
		</g>
	</g>
</g>
<g id="awayDot" class="st1">
	<g class="st2">
		
			<image style="overflow:visible;opacity:0.7;" width="1999" height="1999" xlink:href="6EAC06CA.png"  transform="matrix(1 0 0 1 0.1281 0.1281)">
		</image>
		<g>
			<g>
				<circle class="st13" cx="999.5" cy="999.5" r="934.5"/>
			</g>
			<defs>
				<filter id="Adobe_OpacityMaskFilter_3_" filterUnits="userSpaceOnUse" x="65" y="65" width="1869" height="1869">
					
						<feColorMatrix  type="matrix" values="-1 0 0 0 1  0 -1 0 0 1  0 0 -1 0 1  0 0 0 1 0" color-interpolation-filters="sRGB" result="source"/>
				</filter>
			</defs>
			<mask maskUnits="userSpaceOnUse" x="65" y="65" width="1869" height="1869" id="SVGID_4_">
				<g class="st14">
					<image style="overflow:visible;" width="1873" height="1873" xlink:href="6EAC06CB.jpg"  transform="matrix(1 0 0 1 63 63)">
					</image>
				</g>
			</mask>
			<g class="st15">
				<circle cx="999.5" cy="999.5" r="934.5"/>
			</g>
		</g>
	</g>
</g>
<g id="onlineDot" class="st1">
	<g class="st2">
		
			<image style="overflow:visible;opacity:0.7;" width="1999" height="1999" xlink:href="6EAC06CD.png"  transform="matrix(1 0 0 1 0.1281 0.1281)">
		</image>
		<g>
			<g>
				<circle class="st16" cx="999.5" cy="999.5" r="934.5"/>
			</g>
			<defs>
				<filter id="Adobe_OpacityMaskFilter_4_" filterUnits="userSpaceOnUse" x="65" y="65" width="1869" height="1869">
					
						<feColorMatrix  type="matrix" values="-1 0 0 0 1  0 -1 0 0 1  0 0 -1 0 1  0 0 0 1 0" color-interpolation-filters="sRGB" result="source"/>
				</filter>
			</defs>
			<mask maskUnits="userSpaceOnUse" x="65" y="65" width="1869" height="1869" id="SVGID_5_">
				<g class="st17">
					<image style="overflow:visible;" width="1873" height="1873" xlink:href="FEDCF956.jpg"  transform="matrix(1 0 0 1 63 63)">
					</image>
				</g>
			</mask>
			<g class="st18">
				<circle cx="999.5" cy="999.5" r="934.5"/>
			</g>
		</g>
	</g>
</g>
</svg>
